<?xml version="1.0" encoding="UTF-8"?>
<svg version="1.1" xmlns="http://www.w3.org/2000/svg" width="57" height="47">
<path d="M0 0 C5.61 0 11.22 0 17 0 C21.0096413 8.32872947 25.01127594 16.66123104 29 25 C29.41427246 25.86592773 29.82854492 26.73185547 30.25537109 27.62402344 C31.25841383 29.7262728 32.25580537 31.83105516 33.25 33.9375 C33.79140625 35.08089844 34.3328125 36.22429688 34.890625 37.40234375 C36 40 36 40 36 42 C33.6949874 42.82321879 32.40930462 43.13053111 30.04785156 42.37744141 C27.21801588 40.47401592 26.41553145 38.41603508 24.984375 35.3359375 C24.45585938 34.21445312 23.92734375 33.09296875 23.3828125 31.9375 C22.84398437 30.761875 22.30515625 29.58625 21.75 28.375 C20.91855469 26.59996094 20.91855469 26.59996094 20.0703125 24.7890625 C18.70231618 21.86438071 17.34614073 18.93478941 16 16 C16.26216309 16.57443848 16.52432617 17.14887695 16.79443359 17.74072266 C17.99107527 20.36740671 19.18307073 22.99617441 20.375 25.625 C20.7875 26.52863281 21.2 27.43226562 21.625 28.36328125 C23.65686646 32.85305069 25.57084302 37.27278845 27 42 C24.69 42 22.38 42 20 42 C19.50802124 41.00818726 19.50802124 41.00818726 19.00610352 39.99633789 C17.52697153 37.01735925 16.04477839 34.03991421 14.5625 31.0625 C14.04623047 30.02158203 13.52996094 28.98066406 12.99804688 27.90820312 C12.50498047 26.91884766 12.01191406 25.92949219 11.50390625 24.91015625 C11.04830322 23.99371338 10.5927002 23.07727051 10.12329102 22.13305664 C9.17428387 20.07555771 9.17428387 20.07555771 8 19 C4.37 26.59 0.74 34.18 -3 42 C-5.64 42 -8.28 42 -11 42 C-8.69 36.72 -6.38 31.44 -4 26 C-6.64 31.28 -9.28 36.56 -12 42 C-14.31 42 -16.62 42 -19 42 C-16.35738038 32.81872473 -12.01910653 24.47757753 -7.8125 15.9375 C-7.05482393 14.38892356 -6.29765798 12.84009741 -5.54101562 11.29101562 C-3.70081182 7.52393905 -1.85023886 3.76222332 0 0 Z M3 9 C2.30034557 10.26418246 1.61565237 11.53665402 0.9375 12.8125 C0.55464844 13.52019531 0.17179687 14.22789063 -0.22265625 14.95703125 C-1.30263511 17.14697801 -1.30263511 17.14697801 0 20 C0.69965443 18.73581754 1.38434763 17.46334598 2.0625 16.1875 C2.44535156 15.47980469 2.82820313 14.77210937 3.22265625 14.04296875 C4.30263511 11.85302199 4.30263511 11.85302199 3 9 Z M13 10 C14 12 14 12 14 12 Z M14 12 C15 14 15 14 15 14 Z M-2 20 C-1 22 -1 22 -1 22 Z M-3 22 C-2 24 -2 24 -2 24 Z " fill="#C61049" transform="translate(20,0)"/>
<path d="M0 0 C2.33276367 0.21118164 2.33276367 0.21118164 5 1 C6.4855957 3.00952148 6.4855957 3.00952148 7.67578125 5.62109375 C8.11083984 6.55630859 8.54589844 7.49152344 8.99414062 8.45507812 C9.42919922 9.43927734 9.86425781 10.42347656 10.3125 11.4375 C10.76689453 12.41783203 11.22128906 13.39816406 11.68945312 14.40820312 C15 21.64162359 15 21.64162359 15 24 C12.71044065 24.81769977 11.40918082 25.12678842 9.05859375 24.3984375 C3.9292939 20.91401749 1.54601925 12.77941414 0.39453125 6.91796875 C0.16579426 4.60076357 0.01050851 2.32763434 0 0 Z " fill="#E50E52" transform="translate(41,18)"/>
<path d="M0 0 C0.103125 0.61875 0.20625 1.2375 0.3125 1.875 C0.87525373 4.36526484 0.87525373 4.36526484 4 6 C4 5.01 4 4.02 4 3 C4.66 3 5.32 3 6 3 C4.55676531 7.73789165 2.62773267 11.98858151 0.375 16.375 C0.05015625 17.01566406 -0.2746875 17.65632813 -0.609375 18.31640625 C-1.40257407 19.87947501 -2.20077031 21.44000622 -3 23 C-5.31 23 -7.62 23 -10 23 C-7.60292686 14.82175048 -3.91141228 7.53348722 0 0 Z " fill="#A41646" transform="translate(11,19)"/>
<path d="M0 0 C0.66 0 1.32 0 2 0 C4.1519437 3.22791555 4.20086443 4.28400809 4 8 C4.66 8 5.32 8 6 8 C6 9.32 6 10.64 6 12 C6.99 11.34 7.98 10.68 9 10 C8.649375 9.4225 8.29875 8.845 7.9375 8.25 C6.83422289 5.60213494 7.19843491 4.66814674 8 2 C9.67294007 5.45533314 11.33727763 8.91473993 13 12.375 C13.71542969 13.85226563 13.71542969 13.85226563 14.4453125 15.359375 C14.89648438 16.30039062 15.34765625 17.24140625 15.8125 18.2109375 C16.23144531 19.08024902 16.65039062 19.94956055 17.08203125 20.84521484 C18 23 18 23 18 25 C15.69 25 13.38 25 11 25 C9.15692045 21.40073658 7.32723483 17.79482969 5.5 14.1875 C4.71302734 12.65125977 4.71302734 12.65125977 3.91015625 11.08398438 C3.41386719 10.10107422 2.91757812 9.11816406 2.40625 8.10546875 C1.94541016 7.19949951 1.48457031 6.29353027 1.00976562 5.36010742 C0 3 0 3 0 0 Z " fill="#B61A4C" transform="translate(29,17)"/>
<path d="M0 0 C3.05383204 1.52691602 3.38086503 3.95216256 4.625 7.0625 C5.07101563 8.16722656 5.51703125 9.27195312 5.9765625 10.41015625 C6.31429687 11.26480469 6.65203125 12.11945312 7 13 C5.20909747 13.19466332 3.41723495 13.38051213 1.625 13.5625 C0.12839844 13.71912109 0.12839844 13.71912109 -1.3984375 13.87890625 C-4 14 -4 14 -6 13 C-4.58707905 8.1725201 -2.57025846 4.2837641 0 0 Z " fill="#232323" transform="translate(28,29)"/>
<path d="M0 0 C0.99 0.99 1.98 1.98 3 3 C2.01 4.485 2.01 4.485 1 6 C0.58499615 7.67357763 0.23515411 9.36412068 -0.0625 11.0625 C-0.90660592 15.81321185 -0.90660592 15.81321185 -2 18 C-4.64 18 -7.28 18 -10 18 C-9.2662172 16.20163067 -8.51234132 14.41145044 -7.75 12.625 C-7.33234375 11.62726562 -6.9146875 10.62953125 -6.484375 9.6015625 C-4.85463485 6.74522844 -3.91727397 6.26415206 -1 5 C-0.18828772 2.44480079 -0.18828772 2.44480079 0 0 Z " fill="#DC1452" transform="translate(19,24)"/>
<path d="M0 0 C2.3203125 0.16015625 2.3203125 0.16015625 5 1 C6.6171875 3.43359375 6.6171875 3.43359375 7.875 6.4375 C8.30554687 7.42621094 8.73609375 8.41492188 9.1796875 9.43359375 C10 12 10 12 9 14 C8.67 13.01 8.34 12.02 8 11 C7.01 10.67 6.02 10.34 5 10 C4.34 11.32 3.68 12.64 3 14 C1.20724134 10.88089144 0.65709282 8.32317572 0.375 4.75 C0.30023438 3.85796875 0.22546875 2.9659375 0.1484375 2.046875 C0.09945312 1.37140625 0.05046875 0.6959375 0 0 Z " fill="#D1154D" transform="translate(41,18)"/>
<path d="M0 0 C1.32 0 2.64 0 4 0 C4 0.66 4 1.32 4 2 C3.34 2 2.68 2 2 2 C2.061875 3.19625 2.12375 4.3925 2.1875 5.625 C2.20943937 9.73497595 1.13130434 12.4478261 -1 16 C-1.33 16 -1.66 16 -2 16 C-2.17942163 12.05272412 -2.09350689 9.4019487 0 6 C-0.66 6 -1.32 6 -2 6 C-2.103125 6.639375 -2.20625 7.27875 -2.3125 7.9375 C-2.539375 8.618125 -2.76625 9.29875 -3 10 C-3.99 10.33 -4.98 10.66 -6 11 C-5.34 8.69 -4.68 6.38 -4 4 C-2.68 3.67 -1.36 3.34 0 3 C0 2.01 0 1.02 0 0 Z " fill="#C41047" transform="translate(21,20)"/>
<path d="M0 0 C1.98 0.66 3.96 1.32 6 2 C6.33 1.34 6.66 0.68 7 0 C10 5.75 10 5.75 10 8 C7.69 8 5.38 8 3 8 C0 2.25 0 2.25 0 0 Z " fill="#AA1648" transform="translate(37,34)"/>
<path d="M0 0 C2.64 0 5.28 0 8 0 C8.66 2.31 9.32 4.62 10 7 C9.34 7.66 8.68 8.32 8 9 C7.608125 8.175 7.21625 7.35 6.8125 6.5 C6.214375 5.675 5.61625 4.85 5 4 C2.37305578 3.58219121 2.37305578 3.58219121 0 4 C0 2.68 0 1.36 0 0 Z " fill="#A9194B" transform="translate(29,0)"/>
<path d="M0 0 C0.33 0 0.66 0 1 0 C1.33 1.65 1.66 3.3 2 5 C3.65 4.34 5.3 3.68 7 3 C7 3.66 7 4.32 7 5 C6.34 5 5.68 5 5 5 C4.566875 6.423125 4.566875 6.423125 4.125 7.875 C3 11 3 11 1 13 C0.67 11.35 0.34 9.7 0 8 C-0.99 8 -1.98 8 -3 8 C-1.125 2.25 -1.125 2.25 0 0 Z " fill="#DF1A56" transform="translate(18,4)"/>
<path d="M0 0 C0.103125 0.61875 0.20625 1.2375 0.3125 1.875 C0.87525373 4.36526484 0.87525373 4.36526484 4 6 C4 5.01 4 4.02 4 3 C4.66 3 5.32 3 6 3 C4.125 8.75 4.125 8.75 3 11 C1.35 11 -0.3 11 -2 11 C-1.85892253 9.54119891 -1.71197585 8.08296449 -1.5625 6.625 C-1.48128906 5.81289063 -1.40007813 5.00078125 -1.31640625 4.1640625 C-1 2 -1 2 0 0 Z " fill="#C1134A" transform="translate(11,19)"/>
<path d="M0 0 C3.49928164 2.33285443 3.6329098 3.20795069 4.6875 7.125 C4.93886719 8.03507812 5.19023438 8.94515625 5.44921875 9.8828125 C5.72185547 10.93082031 5.72185547 10.93082031 6 12 C4.68 12 3.36 12 2 12 C2 10.68 2 9.36 2 8 C1.34 8 0.68 8 0 8 C-0.66 6.02 -1.32 4.04 -2 2 C-1.34 1.34 -0.68 0.68 0 0 Z " fill="#CD0847" transform="translate(33,17)"/>
<path d="M0 0 C2.64 0 5.28 0 8 0 C8 3 8 3 6.5 4.6875 C6.005 5.120625 5.51 5.55375 5 6 C2 4 2 4 1 1 C1 1.99 1 2.98 1 4 C0.34 4 -0.32 4 -1 4 C-0.67 2.68 -0.34 1.36 0 0 Z " fill="#E71152" transform="translate(20,0)"/>
<path d="M0 0 C0.66 0 1.32 0 2 0 C2.33 4.29 2.66 8.58 3 13 C-0.54153351 8.27795532 -1.24554996 6.77042416 -1 1 C-0.67 0.67 -0.34 0.34 0 0 Z " fill="#BA1449" transform="translate(39,13)"/>
<path d="M0 0 C1.32 0.33 2.64 0.66 4 1 C4 3.64 4 6.28 4 9 C3.01 9.33 2.02 9.66 1 10 C0.67 6.7 0.34 3.4 0 0 Z " fill="#D30848" transform="translate(41,18)"/>
<path d="M0 0 C0.99 0.33 1.98 0.66 3 1 C3 1.66 3 2.32 3 3 C3.99 3 4.98 3 6 3 C6 3.66 6 4.32 6 5 C5.01 5 4.02 5 3 5 C3 5.99 3 6.98 3 8 C1.68 8 0.36 8 -1 8 C-0.67 5.36 -0.34 2.72 0 0 Z " fill="#D70A4B" transform="translate(12,17)"/>
<path d="M0 0 C0.33 0 0.66 0 1 0 C0.67 2.31 0.34 4.62 0 7 C-0.66 7 -1.32 7 -2 7 C-2 8.32 -2 9.64 -2 11 C-2.66 11 -3.32 11 -4 11 C-4 11.99 -4 12.98 -4 14 C-4.66 14 -5.32 14 -6 14 C-4.50829734 9.0276578 -2.39542583 4.58154261 0 0 Z " fill="#A3224E" transform="translate(9,23)"/>
<path d="M0 0 C0.66 0.33 1.32 0.66 2 1 C2.625 3.5625 2.625 3.5625 3 6 C1.68 6.99 0.36 7.98 -1 9 C-2 8 -2 8 -2.0625 5.4375 C-2.041875 4.633125 -2.02125 3.82875 -2 3 C-1.34 3 -0.68 3 0 3 C0 2.01 0 1.02 0 0 Z " fill="#F5034C" transform="translate(21,1)"/>
<path d="M0 0 C1.04449911 3.13349732 0.93423645 3.98968256 0 7 C1.32 7 2.64 7 4 7 C4 7.66 4 8.32 4 9 C1.36 9 -1.28 9 -4 9 C-2.68 6.03 -1.36 3.06 0 0 Z " fill="#CE2255" transform="translate(13,33)"/>
<path d="M0 0 C2.52259061 1.97420135 2.9929808 2.96745642 3.6875 6.1875 C3.790625 7.115625 3.89375 8.04375 4 9 C3.01 9.495 3.01 9.495 2 10 C1.87625 9.360625 1.7525 8.72125 1.625 8.0625 C1.315625 7.0415625 1.315625 7.0415625 1 6 C0.34 5.67 -0.32 5.34 -1 5 C-0.67 3.35 -0.34 1.7 0 0 Z " fill="#B20F44" transform="translate(24,10)"/>
<path d="M0 0 C0.66 0.33 1.32 0.66 2 1 C1.67 2.65 1.34 4.3 1 6 C-0.32 6.33 -1.64 6.66 -3 7 C-1.125 1.125 -1.125 1.125 0 0 Z " fill="#302D2E" transform="translate(28,29)"/>
<path d="M0 0 C0.66 0.33 1.32 0.66 2 1 C2 2.32 2 3.64 2 5 C1.34 5 0.68 5 0 5 C0 5.66 0 6.32 0 7 C-0.99 6.67 -1.98 6.34 -3 6 C-1.125 1.125 -1.125 1.125 0 0 Z " fill="#F2034C" transform="translate(15,34)"/>
<path d="M0 0 C3.44216672 2.6598561 3.99504674 5.90288286 5 10 C4.01 9.34 3.02 8.68 2 8 C2 7.01 2 6.02 2 5 C1.34 5 0.68 5 0 5 C0 3.35 0 1.7 0 0 Z " fill="#BA1C4A" transform="translate(31,9)"/>
<path d="M0 0 C0.66 0.33 1.32 0.66 2 1 C0.25 6.75 0.25 6.75 -2 9 C-2.25 3.375 -2.25 3.375 0 0 Z " fill="#CC2558" transform="translate(21,27)"/>
<path d="M0 0 C0.99 0.99 1.98 1.98 3 3 C2.01 4.98 1.02 6.96 0 9 C-0.66 8.67 -1.32 8.34 -2 8 C-1.125 1.125 -1.125 1.125 0 0 Z " fill="#D70648" transform="translate(19,24)"/>
<path d="M0 0 C2.15377564 2.62198774 3.40072174 4.64404172 4 8 C2.68 7.67 1.36 7.34 0 7 C0 4.69 0 2.38 0 0 Z " fill="#CA2256" transform="translate(45,19)"/>
</svg>
